<?xml version="1.0" encoding="utf-8"?>
<!-- Generator: Adobe Illustrator 15.1.0, SVG Export Plug-In . SVG Version: 6.00 Build 0)  -->
<!DOCTYPE svg PUBLIC "-//W3C//DTD SVG 1.1//EN" "http://www.w3.org/Graphics/SVG/1.1/DTD/svg11.dtd">
<svg version="1.1" id="Layer_1" xmlns="http://www.w3.org/2000/svg" xmlns:xlink="http://www.w3.org/1999/xlink" x="0px" y="0px"
	 width="1000px" height="1000px" viewBox="0 0 1000 1000" enable-background="new 0 0 1000 1000" xml:space="preserve">
<path fill="#36B37F" d="M766.667,800c0,18.333-15,33.333-33.334,33.333H266.667c-18.333,0-33.333-15-33.333-33.333V316.667
	c0-18.333,15-33.333,33.333-33.333h466.667c18.334,0,33.334,15,33.334,33.333V800z"/>
<path fill="#8CCC4C" d="M733.333,741.667H266.667c-18.333,0-33.333-15-33.333-33.334V200c0-18.333,15-33.333,33.333-33.333h466.667
	c18.334,0,33.334,15,33.334,33.333v541.667H733.333z"/>
<rect x="291.667" y="766.667" fill="#F5F5F5" width="475" height="41.666"/>
<g>
	<path fill="#36B37F" d="M266.667,166.667c-18.333,0-33.333,15-33.333,33.333v508.333c0,18.334,15,33.334,33.333,33.334h25v-575
		H266.667z"/>
</g>
<circle cx="511" cy="361" r="89.5"/>
<line fill="none" stroke="#000000" stroke-width="10" stroke-miterlimit="10" x1="511" y1="450.5" x2="511" y2="664.5"/>
<line fill="none" stroke="#000000" stroke-width="10" stroke-miterlimit="10" x1="511" y1="500" x2="614.5" y2="509.5"/>
<line fill="none" stroke="#000000" stroke-width="10" stroke-miterlimit="10" x1="614.5" y1="509.5" x2="645.5" y2="430.5"/>
<line fill="none" stroke="#000000" stroke-width="10" stroke-miterlimit="10" x1="515.5" y1="500" x2="434.5" y2="504.75"/>
<line fill="none" stroke="#000000" stroke-width="10" stroke-miterlimit="10" x1="434.5" y1="504.75" x2="416.5" y2="616.5"/>
<ellipse fill="#FFFFFF" cx="448" cy="284.5" rx="13.5" ry="13"/>
<ellipse fill="#FFFFFF" cx="448" cy="301.5" rx="13.5" ry="13"/>
<ellipse fill="#FFFFFF" cx="430" cy="297.5" rx="13.5" ry="13"/>
<ellipse fill="#FFFFFF" cx="439" cy="314.5" rx="13.5" ry="13"/>
<ellipse fill="#FFFFFF" cx="416.5" cy="319.72" rx="13.5" ry="13"/>
<ellipse fill="#FFFFFF" cx="434.5" cy="332.72" rx="13.5" ry="13"/>
<ellipse fill="#FFFFFF" cx="416.5" cy="340.5" rx="13.5" ry="13"/>
<ellipse fill="#FFFFFF" cx="430" cy="345.72" rx="13.5" ry="13"/>
<ellipse fill="#FFFFFF" cx="461.5" cy="288.5" rx="13.5" ry="13"/>
<ellipse fill="#FFFFFF" cx="466" cy="271.5" rx="13.5" ry="13"/>
<ellipse fill="#FFFFFF" cx="479.5" cy="283.333" rx="13.5" ry="13"/>
<ellipse fill="#FFFFFF" cx="486.5" cy="262.5" rx="13.5" ry="13"/>
<ellipse fill="#FFFFFF" cx="500" cy="275.5" rx="13.5" ry="13"/>
<ellipse fill="#FFFFFF" cx="506.5" cy="262.5" rx="13.5" ry="13"/>
<ellipse fill="#FFFFFF" cx="515.5" cy="275.5" rx="13.5" ry="13"/>
<ellipse fill="#FFFFFF" cx="520" cy="262.5" rx="13.5" ry="13"/>
<ellipse fill="#FFFFFF" cx="533.5" cy="275.5" rx="13.5" ry="13"/>
<ellipse fill="#FFFFFF" cx="535.75" cy="262.5" rx="13.5" ry="13"/>
<ellipse fill="#FFFFFF" cx="549.25" cy="283.333" rx="13.5" ry="13"/>
<ellipse fill="#FFFFFF" cx="562.75" cy="275.5" rx="13.5" ry="13"/>
<ellipse fill="#FFFFFF" cx="581.5" cy="283.298" rx="13.5" ry="13"/>
<ellipse fill="#FFFFFF" cx="568" cy="297.5" rx="13.5" ry="13"/>
<ellipse fill="#FFFFFF" cx="596.65" cy="296.899" rx="11.849" ry="13.601"/>
<ellipse fill="#FFFFFF" cx="581.5" cy="310.5" rx="13.5" ry="13"/>
<ellipse fill="#FFFFFF" cx="600.5" cy="310.5" rx="13.5" ry="13"/>
<ellipse fill="#FFFFFF" cx="595" cy="327.5" rx="13.5" ry="13"/>
<ellipse fill="#FFFFFF" cx="607.75" cy="323.5" rx="13.5" ry="13"/>
<ellipse fill="#FFFFFF" cx="594.25" cy="345.72" rx="13.5" ry="13"/>
<ellipse fill="#FFFFFF" cx="608.5" cy="345.72" rx="13.5" ry="13"/>
<ellipse fill="#FFFFFF" cx="547" cy="262.5" rx="13.5" ry="13"/>
<ellipse fill="#FFFFFF" cx="584.802" cy="297.5" rx="13.5" ry="13"/>
<ellipse fill="#FFFFFF" cx="594.25" cy="308.5" rx="13.5" ry="13"/>
</svg>
