<?xml version="1.0" encoding="utf-8"?>
<!-- Generator: Adobe Illustrator 15.1.0, SVG Export Plug-In . SVG Version: 6.00 Build 0)  -->
<!DOCTYPE svg PUBLIC "-//W3C//DTD SVG 1.1//EN" "http://www.w3.org/Graphics/SVG/1.1/DTD/svg11.dtd">
<svg version="1.1" id="Layer_1" xmlns="http://www.w3.org/2000/svg" xmlns:xlink="http://www.w3.org/1999/xlink" x="0px" y="0px"
	 width="600.9px" height="59.9px" viewBox="0 0 600.9 59.9" enable-background="new 0 0 600.9 59.9" xml:space="preserve">
<g transform="matrix(1.0, 0.0, 0.0, 1.0, 299.95, 29.95)">
	<path fill="#6FE4D0" d="M300.95,29.95h-600.9V-18.65c0.367-3.199,1.5-5.716,3.4-7.55l0.45-0.399
		c2.367-2.034,5.783-3.15,10.25-3.351H286.9c4.467,0.2,7.884,1.316,10.25,3.351l0.45,0.399c1.867,1.834,2.983,4.351,3.351,7.55
		V29.95 M-297.9-14.75l0.1,28.1l22.9,14.551H275.2c7.899-4.2,15.783-8.384,23.649-12.551l0.101-30.1
		c-0.801-4.333-1.334-6.684-1.601-7.05l-1-1.55l-1-1.25L293.7-25.9c-0.934-0.733-2.934-1.366-6-1.899H-286.65
		c-3.066,0.533-5.066,1.166-6,1.899l-1.65,1.301l-1,1.25l-1,1.55C-296.567-21.434-297.1-19.083-297.9-14.75"/>
	<path fill="#6FE4D0" d="M-297.9-14.75c0.8-4.333,1.333-6.684,1.6-7.05l1-1.55l1-1.25l1.65-1.301c0.934-0.733,2.934-1.366,6-1.899
		H287.7c3.066,0.533,5.066,1.166,6,1.899l1.649,1.301l1,1.25l1,1.55c0.267,0.366,0.8,2.717,1.601,7.05l-0.101,30.1
		C290.984,19.517,283.1,23.7,275.2,27.9H-274.9l-22.9-14.551L-297.9-14.75"/>
</g>
<g transform="matrix(1.0, 0.0, 0.0, 1.0, 128.55, 27.85)">
	<path fill="#3C7AC1" d="M247.327-26.35h208.646c9.907,0,14.86,4.911,14.86,14.735v27.478c0,9.857-4.953,14.787-14.86,14.787
		H247.327c-9.907,0-14.86-4.93-14.86-14.787v-27.478C232.467-21.439,237.42-26.35,247.327-26.35"/>
	<path fill="#7EB8F2" d="M247.131-26.35h206.424c9.774,0,14.663,4.69,14.663,14.071v26.197c0,9.381-4.889,14.071-14.663,14.071
		H247.131c-9.776,0-14.664-4.69-14.664-14.071v-26.197C232.467-21.66,237.354-26.35,247.131-26.35"/>
</g>
<g transform="matrix(1.0, 0.0, 0.0, 1.0, 128.5, 27.85)">
	<path fill="#D44545" d="M-110.45-26.8h225c10.666,0,16,4.884,16,14.65v27.3c0,9.767-5.334,14.65-16,14.65h-225
		c-10.666,0-16-4.884-16-14.65v-27.3C-126.45-21.917-121.116-26.8-110.45-26.8"/>
	<path fill="#FF5050" d="M-107.101-26.85H114.75c10.533,0,15.8,4.65,15.8,13.95v25.95c0,9.3-5.267,13.95-15.8,13.95h-221.851
		c-10.533,0-15.8-4.65-15.8-13.95V-12.9C-122.9-22.2-117.634-26.85-107.101-26.85"/>
</g>
</svg>
