<?xml version="1.0" encoding="utf-8"?>
<!-- Generator: Adobe Illustrator 15.1.0, SVG Export Plug-In . SVG Version: 6.00 Build 0)  -->
<!DOCTYPE svg PUBLIC "-//W3C//DTD SVG 1.1//EN" "http://www.w3.org/Graphics/SVG/1.1/DTD/svg11.dtd">
<svg version="1.1" id="Layer_1" xmlns="http://www.w3.org/2000/svg" xmlns:xlink="http://www.w3.org/1999/xlink" x="0px" y="0px"
	 width="50px" height="50px" viewBox="0 0 50 50" enable-background="new 0 0 50 50" xml:space="preserve">
<g id="surface1">
	<path fill="#2E3192" stroke="#F8F6E4" stroke-miterlimit="10" d="M25,0.36C11.396,0.36,0.36,11.396,0.36,25S11.396,49.64,25,49.64
		S49.64,38.604,49.64,25S38.604,0.36,25,0.36z M36.117,33.451l-2.674,2.666c-0.488,0.488-1.284,0.488-1.772,0L25,29.447l-6.671,6.67
		c-0.488,0.488-1.284,0.488-1.772-0.007l-2.674-2.659c-0.481-0.496-0.481-1.285,0-1.78L20.553,25l-6.663-6.663
		c-0.488-0.496-0.488-1.292,0-1.78l2.667-2.667c0.488-0.496,1.292-0.496,1.78,0L25,20.553l6.671-6.663
		c0.488-0.496,1.292-0.496,1.772,0l2.674,2.659c0.488,0.496,0.488,1.292,0,1.788L29.447,25l6.67,6.671
		C36.599,32.166,36.599,32.955,36.117,33.451z"/>
</g>
</svg>
