<?xml version="1.0" encoding="utf-8"?>
<!-- Generator: Adobe Illustrator 15.1.0, SVG Export Plug-In . SVG Version: 6.00 Build 0)  -->
<!DOCTYPE svg PUBLIC "-//W3C//DTD SVG 1.1//EN" "http://www.w3.org/Graphics/SVG/1.1/DTD/svg11.dtd">
<svg version="1.1" id="Layer_1" xmlns="http://www.w3.org/2000/svg" xmlns:xlink="http://www.w3.org/1999/xlink" x="0px" y="0px"
	 width="44.05px" height="44px" viewBox="0 0 44.05 44" enable-background="new 0 0 44.05 44" xml:space="preserve">
<g transform="matrix(1.0, 0.0, 0.0, 1.0, 22.0, 22.0)">
	<path fill="#3498DB" d="M6.482-16.9h4.441c0.384-0.067,0.749,0.083,1.098,0.45v8.3H6.482V-16.9 M15-20.45h1.83l4.913,4.55v31.95
		v0.75c-0.977,2-2.493,3.017-4.547,3.05h-1.779V2.35c-0.104-0.699-0.557-1.1-1.357-1.199h-27.024c-1.15,0-1.777,0.434-1.881,1.3
		V19.85h-1.83c-1.742,0.066-3.344-0.967-4.808-3.1V-16.3c0.383-2.4,1.742-3.784,4.077-4.15h3.188V-6.4l0.209,0.65
		c-0.105,0.5,0.035,0.95,0.418,1.35h27.18C14.529-4.4,15-5.083,15-6.45V-20.45"/>
	<path fill="#3290D0" d="M6.482-16.9v-0.65h5.539v1.1c-0.349-0.366-0.714-0.517-1.098-0.45H6.482 M15-6.45
		c0,1.367-0.472,2.05-1.411,2.05h-27.18c-0.383-0.4-0.523-0.85-0.418-1.35c0.174,0.3,0.47,0.483,0.889,0.55h26.814
		C14.529-5.3,14.965-5.717,15-6.45"/>
	<path fill="#71B7E6" d="M12.021-16.45v-1.1H6.482v0.65v8.75h5.539V-16.45 M-14.218-20.45H15v14c-0.035,0.733-0.472,1.15-1.307,1.25
		H-13.12c-0.419-0.066-0.715-0.25-0.889-0.55l-0.209-0.65V-20.45"/>
	<path fill="#2E7DB2" d="M21.744,16.8c-0.245,2.567-1.795,3.934-4.653,4.101h-1.673V19.85h1.779
		C19.25,19.816,20.767,18.8,21.744,16.8 M-14.846,20.9h-1.882c-2.752-0.066-4.338-1.45-4.756-4.15
		c1.463,2.133,3.066,3.166,4.808,3.1h1.83V20.9"/>
	<path fill="#CCCCCC" d="M15.417,20.9h-30.263V19.85h30.263V20.9"/>
</g>
<g id="In-banners">
	<g id="Artboard-5" transform="translate(-190.000000, -43.000000)">
		<g id="logo-without-border" transform="translate(190.000000, 43.000000)">
			<path id="Rectangle" opacity="0.96" fill="#FFFFFF" enable-background="new    " d="M10.707,25.961h22.467
				c0.652,0,1.182,0.529,1.182,1.184v11.626c0,0.655-0.529,1.184-1.182,1.184H10.707c-0.653,0-1.182-0.528-1.182-1.184V27.145
				C9.525,26.49,10.054,25.961,10.707,25.961z"/>
			<g id="Logo-_x2F_-White-version" transform="translate(13.000000, 13.000000)">
				<path id="Combined-Shape" d="M6.181,15.523h1.774v3.548H6.181V15.523z M4.408,19.071h1.773v1.772H4.408V19.071z M0.861,19.071
					h1.773v1.772H0.861V19.071z M2.634,20.844h1.774v3.548H2.634V20.844z M-0.913,15.523h1.774v3.548h-1.774V15.523z"/>
				<path id="Combined-Shape_1_" fill="#E81919" d="M11.305,15.523h5.715v1.774h-5.715V15.523z M17.02,17.298h1.775v1.773H17.02
					V17.298z M9.532,17.298h1.773v1.773H9.532V17.298z M9.532,20.844h1.773v1.774H9.532V20.844z M11.305,19.071h5.715v1.772h-5.715
					V19.071z M11.305,22.618h5.715v1.773h-5.715V22.618z M17.02,20.844h1.775v1.774H17.02V20.844z"/>
			</g>
		</g>
	</g>
</g>
</svg>
