<?xml version="1.0" encoding="utf-8"?>
<!-- Generator: Adobe Illustrator 15.1.0, SVG Export Plug-In . SVG Version: 6.00 Build 0)  -->
<!DOCTYPE svg PUBLIC "-//W3C//DTD SVG 1.1//EN" "http://www.w3.org/Graphics/SVG/1.1/DTD/svg11.dtd">
<svg version="1.1" id="Layer_1" xmlns="http://www.w3.org/2000/svg" xmlns:xlink="http://www.w3.org/1999/xlink" x="0px" y="0px"
	 width="241.4px" height="55.7px" viewBox="0 0 241.4 55.7" enable-background="new 0 0 241.4 55.7" xml:space="preserve">
<g transform="matrix(1.0, 0.0, 0.0, 1.0, 128.55, 27.85)">
	<path fill="#6B96C1" d="M-113.5-27.85H97.8c10.033,0,15.05,4.8,15.05,14.4V13.4c0,9.633-5.017,14.449-15.05,14.449H-113.5
		c-10.033,0-15.05-4.816-15.05-14.449V-13.45C-128.55-23.05-123.534-27.85-113.5-27.85"/>
	<path fill="none" d="M-111.05,11.816H98c9.9,0,14.85,4.584,14.85,13.75v25.601c0,9.166-4.949,13.75-14.85,13.75H-111.05
		c-9.9,0-14.851-4.584-14.851-13.75V25.566C-125.9,16.4-120.95,11.816-111.05,11.816"/>
	<text transform="matrix(1 0 0 1 -106.728 11.8165)"><tspan x="0" y="0" fill="#FFFFFF" stroke="#FFFFFF" stroke-miterlimit="10" font-family="'MyriadPro-Regular'" font-size="36">S</tspan><tspan x="17.738" y="0" fill="#FFFFFF" stroke="#FFFFFF" stroke-miterlimit="10" font-family="'MyriadPro-Regular'" font-size="36">u</tspan><tspan x="37.582" y="0" fill="#FFFFFF" stroke="#FFFFFF" stroke-miterlimit="10" font-family="'MyriadPro-Regular'" font-size="36">b</tspan><tspan x="58.063" y="0" fill="#FFFFFF" stroke="#FFFFFF" stroke-miterlimit="10" font-family="'MyriadPro-Regular'" font-size="36">m</tspan><tspan x="88.113" y="0" fill="#FFFFFF" stroke="#FFFFFF" stroke-miterlimit="10" font-family="'MyriadPro-Regular'" font-size="36">i</tspan><tspan x="96.542" y="0" fill="#FFFFFF" stroke="#FFFFFF" stroke-miterlimit="10" font-family="'MyriadPro-Regular'" font-size="36">t</tspan><tspan x="108.46" y="0" fill="#FFFFFF" stroke="#FFFFFF" stroke-miterlimit="10" font-family="'MyriadPro-Regular'" font-size="36"> </tspan><tspan x="116.075" y="0" fill="#FFFFFF" stroke="#FFFFFF" stroke-miterlimit="10" font-family="'MyriadPro-Regular'" font-size="36">S</tspan><tspan x="133.837" y="0" fill="#FFFFFF" stroke="#FFFFFF" stroke-miterlimit="10" font-family="'MyriadPro-Regular'" font-size="36">c</tspan><tspan x="149.968" y="0" fill="#FFFFFF" stroke="#FFFFFF" stroke-miterlimit="10" font-family="'MyriadPro-Regular'" font-size="36">o</tspan><tspan x="169.72" y="0" fill="#FFFFFF" stroke="#FFFFFF" stroke-miterlimit="10" font-family="'MyriadPro-Regular'" font-size="36">r</tspan><tspan x="181.507" y="0" fill="#FFFFFF" stroke="#FFFFFF" stroke-miterlimit="10" font-family="'MyriadPro-Regular'" font-size="36">e</tspan></text>
</g>
</svg>
